<?xml version="1.0" encoding="UTF-8" standalone="no"?>
<svg
   xmlns:dc="http://purl.org/dc/elements/1.1/"
   xmlns:cc="http://creativecommons.org/ns#"
   xmlns:rdf="http://www.w3.org/1999/02/22-rdf-syntax-ns#"
   xmlns:svg="http://www.w3.org/2000/svg"
   xmlns="http://www.w3.org/2000/svg"
   xmlns:sodipodi="http://sodipodi.sourceforge.net/DTD/sodipodi-0.dtd"
   xmlns:inkscape="http://www.inkscape.org/namespaces/inkscape"
   width="148"
   height="31"
   viewBox="0 0 148 31"
   version="1.1"
   id="svg12"
   sodipodi:docname="logo.svg"
   inkscape:version="0.92.4 (unknown)">
  <metadata
     id="metadata16">
    <rdf:RDF>
      <cc:Work
         rdf:about="">
        <dc:format>image/svg+xml</dc:format>
        <dc:type
           rdf:resource="http://purl.org/dc/dcmitype/StillImage" />
        <dc:title>logo</dc:title>
      </cc:Work>
    </rdf:RDF>
  </metadata>
  <sodipodi:namedview
     pagecolor="#ffffff"
     bordercolor="#666666"
     borderopacity="1"
     objecttolerance="10"
     gridtolerance="10"
     guidetolerance="10"
     inkscape:pageopacity="0"
     inkscape:pageshadow="2"
     inkscape:window-width="1920"
     inkscape:window-height="1016"
     id="namedview14"
     showgrid="false"
     inkscape:zoom="3.9776536"
     inkscape:cx="74.657581"
     inkscape:cy="14.661609"
     inkscape:window-x="0"
     inkscape:window-y="27"
     inkscape:window-maximized="1"
     inkscape:current-layer="g1490"
     showguides="true"
     inkscape:guide-bbox="true" />
  <!-- Generator: Sketch 51.3 (57544) - http://www.bohemiancoding.com/sketch -->
  <title
     id="title2">logo</title>
  <desc
     id="desc4">Created with Sketch.</desc>
  <defs
     id="defs6" />
  <g
     transform="matrix(0.62994009,0,0,0.6299409,-2.5286642,-154.75908)"
     id="g1490">
    <g
       transform="matrix(0.96281738,0,0,0.95378151,667.78247,-34.056089)"
       id="g884"
       style="font-style:normal;font-weight:normal;font-size:10.58333302px;line-height:1.25;font-family:sans-serif;letter-spacing:0px;word-spacing:0px;fill:#000000;fill-opacity:1;stroke:none;stroke-width:0.26458332">
      <path
         d="m -631.83273,306.278 h 5.08237 l 6.43317,17.15512 6.46693,-17.15512 h 5.08237 v 25.20923 h -3.32633 v -22.13616 l -6.50071,17.29019 h -3.42764 l -6.50071,-17.29019 v 22.13616 h -3.30945 z"
         style="font-style:normal;font-weight:normal;font-size:45.86111069px;line-height:1.25;font-family:sans-serif;letter-spacing:0px;word-spacing:0px;fill:#000000;fill-opacity:1;stroke:#280b0b;stroke-width:1;stroke-miterlimit:4;stroke-dasharray:none;stroke-opacity:1"
         id="path922-5"
         inkscape:connector-curvature="0" />
      <path
         d="m -593.52078,321.98101 q -3.76534,0 -5.21744,0.86113 -1.45211,0.86113 -1.45211,2.93799 0,1.65472 1.08064,2.63405 1.09752,0.96244 2.97175,0.96244 2.5834,0 4.13681,-1.82358 1.5703,-1.84046 1.5703,-4.87974 v -0.69229 z m 6.19678,-1.28325 v 10.78947 h -3.10683 v -2.87043 q -1.06375,1.72227 -2.65094,2.54962 -1.58718,0.81048 -3.88354,0.81048 -2.90421,0 -4.62647,-1.62095 -1.70538,-1.63784 -1.70538,-4.37321 0,-3.19125 2.1275,-4.81221 2.14439,-1.62095 6.38251,-1.62095 h 4.35632 v -0.30393 q 0,-2.14439 -1.41833,-3.30944 -1.40146,-1.18196 -3.95108,-1.18196 -1.62096,0 -3.15749,0.38836 -1.53653,0.38835 -2.95487,1.16506 v -2.87043 q 1.70538,-0.65853 3.30945,-0.97934 1.60408,-0.3377 3.12372,-0.3377 4.10304,0 6.12924,2.1275 2.02619,2.12751 2.02619,6.45006 z"
         style="font-style:normal;font-weight:normal;font-size:45.86111069px;line-height:1.25;font-family:sans-serif;letter-spacing:0px;word-spacing:0px;fill:#000000;fill-opacity:1;stroke:#280b0b;stroke-width:1;stroke-miterlimit:4;stroke-dasharray:none;stroke-opacity:1"
         id="path924-3"
         inkscape:connector-curvature="0" />
      <path
         d="m -568.46351,321.81216 q 0,-3.37698 -1.40145,-5.23433 -1.38457,-1.85735 -3.90043,-1.85735 -2.49897,0 -3.90042,1.85735 -1.38456,1.85735 -1.38456,5.23433 0,3.36011 1.38456,5.21746 1.40145,1.85734 3.90042,1.85734 2.51586,0 3.90043,-1.85734 1.40145,-1.85735 1.40145,-5.21746 z m 3.10682,7.32807 q 0,4.82909 -2.14438,7.1761 -2.14439,2.36389 -6.56825,2.36389 -1.63783,0 -3.08994,-0.25327 -1.4521,-0.23638 -2.81979,-0.74293 v -3.02241 q 1.36769,0.74293 2.7016,1.09752 1.33391,0.35459 2.71847,0.35459 3.05618,0 4.57582,-1.60408 1.51965,-1.58718 1.51965,-4.8122 v -1.53653 q -0.96245,1.67161 -2.46521,2.49897 -1.50276,0.82735 -3.59649,0.82735 -3.4783,0 -5.6058,-2.65093 -2.1275,-2.65094 -2.1275,-7.02414 0,-4.39009 2.1275,-7.04102 2.1275,-2.65094 5.6058,-2.65094 2.09373,0 3.59649,0.82736 1.50276,0.82736 2.46521,2.49898 v -2.87044 h 3.10682 z"
         style="font-style:normal;font-weight:normal;font-size:45.86111069px;line-height:1.25;font-family:sans-serif;letter-spacing:0px;word-spacing:0px;fill:#000000;fill-opacity:1;stroke:#280b0b;stroke-width:1;stroke-miterlimit:4;stroke-dasharray:none;stroke-opacity:1"
         id="path926-5"
         inkscape:connector-curvature="0" />
      <path
         d="m -542.78151,321.25496 v 1.51964 h -14.28467 q 0.20262,3.20814 1.92489,4.89665 1.73915,1.6716 4.8291,1.6716 1.78979,0 3.46141,-0.43901 1.68849,-0.43901 3.34322,-1.31703 v 2.93798 q -1.67161,0.70917 -3.42764,1.08065 -1.75605,0.37146 -3.56273,0.37146 -4.52517,0 -7.1761,-2.63405 -2.63406,-2.63405 -2.63406,-7.12545 0,-4.64336 2.49898,-7.36184 2.51585,-2.73536 6.77086,-2.73536 3.816,0 6.02793,2.4652 2.22881,2.44833 2.22881,6.66956 z m -3.10683,-0.91179 q -0.0337,-2.54962 -1.43522,-4.06928 -1.38457,-1.51964 -3.68092,-1.51964 -2.60028,0 -4.17058,1.469 -1.55341,1.46898 -1.78981,4.1368 z"
         style="font-style:normal;font-weight:normal;font-size:45.86111069px;line-height:1.25;font-family:sans-serif;letter-spacing:0px;word-spacing:0px;fill:#000000;fill-opacity:1;stroke:#280b0b;stroke-width:1;stroke-miterlimit:4;stroke-dasharray:none;stroke-opacity:1"
         id="path928-6"
         inkscape:connector-curvature="0" />
      <path
         d="m -537.80045,305.21426 h 3.12372 v 15.51726 l 9.26983,-8.15542 h 3.96797 l -10.02967,8.84771 10.4518,10.06342 h -4.05239 l -9.60754,-9.23607 v 9.23607 h -3.12372 z"
         style="font-style:normal;font-weight:normal;font-size:45.86111069px;line-height:1.25;font-family:sans-serif;letter-spacing:0px;word-spacing:0px;fill:#000000;fill-opacity:1;stroke:#280b0b;stroke-width:1;stroke-miterlimit:4;stroke-dasharray:none;stroke-opacity:1"
         id="path930-2"
         inkscape:connector-curvature="0" />
      <path
         d="M -519.02438,324.02409 V 312.5761 h 3.10683 v 11.3298 q 0,2.68471 1.04686,4.0355 1.04688,1.3339 3.14061,1.3339 2.51586,0 3.96796,-1.60405 1.469,-1.60408 1.469,-4.37321 V 312.5761 h 3.10683 v 18.91113 h -3.10683 v -2.9042 q -1.13129,1.72226 -2.63405,2.56651 -1.48589,0.82736 -3.46142,0.82736 -3.2588,0 -4.94729,-2.02619 -1.6885,-2.0262 -1.6885,-5.92662 z m 7.81773,-11.90389 z"
         style="font-style:normal;font-weight:normal;font-size:45.86111069px;line-height:1.25;font-family:sans-serif;letter-spacing:0px;word-spacing:0px;fill:#000000;fill-opacity:1;stroke:#280b0b;stroke-width:1;stroke-miterlimit:4;stroke-dasharray:none;stroke-opacity:1"
         id="path932-9"
         inkscape:connector-curvature="0" />
      <path
         d="m -483.17764,322.04856 q 0,-3.42766 -1.41833,-5.36942 -1.40145,-1.95866 -3.86665,-1.95866 -2.4652,0 -3.88354,1.95866 -1.40145,1.94176 -1.40145,5.36942 0,3.42764 1.40145,5.38629 1.41834,1.94177 3.88354,1.94177 2.4652,0 3.86665,-1.94177 1.41833,-1.95865 1.41833,-5.38629 z m -10.56997,-6.60202 q 0.97932,-1.68851 2.46521,-2.49898 1.50275,-0.82736 3.5796,-0.82736 3.44453,0 5.58891,2.73536 2.16129,2.73536 2.16129,7.193 0,4.45762 -2.16129,7.19299 -2.14438,2.73535 -5.58891,2.73535 -2.07685,0 -3.5796,-0.81048 -1.48589,-0.82735 -2.46521,-2.51586 v 2.83667 h -3.12372 v -26.27297 h 3.12372 z"
         style="font-style:normal;font-weight:normal;font-size:45.86111069px;line-height:1.25;font-family:sans-serif;letter-spacing:0px;word-spacing:0px;fill:#000000;fill-opacity:1;stroke:#280b0b;stroke-width:1;stroke-miterlimit:4;stroke-dasharray:none;stroke-opacity:1"
         id="path934-1"
         inkscape:connector-curvature="0" />
      <path
         d="m -458.62692,321.25496 v 1.51964 h -14.28466 q 0.20261,3.20814 1.92487,4.89665 1.73916,1.6716 4.82911,1.6716 1.7898,0 3.46141,-0.43901 1.6885,-0.43901 3.34321,-1.31703 v 2.93798 q -1.6716,0.70917 -3.42764,1.08065 -1.75603,0.37146 -3.56272,0.37146 -4.52516,0 -7.1761,-2.63405 -2.63406,-2.63405 -2.63406,-7.12545 0,-4.64336 2.49897,-7.36184 2.51586,-2.73536 6.77087,-2.73536 3.816,0 6.02793,2.4652 2.22881,2.44833 2.22881,6.66956 z m -3.10684,-0.91179 q -0.0338,-2.54962 -1.43521,-4.06928 -1.38457,-1.51964 -3.68092,-1.51964 -2.60028,0 -4.17058,1.469 -1.55342,1.46898 -1.7898,4.1368 z"
         style="font-style:normal;font-weight:normal;font-size:45.86111069px;line-height:1.25;font-family:sans-serif;letter-spacing:0px;word-spacing:0px;fill:#000000;fill-opacity:1;stroke:#280b0b;stroke-width:1;stroke-miterlimit:4;stroke-dasharray:none;stroke-opacity:1"
         id="path936-2"
         inkscape:connector-curvature="0" />
    </g>
    <g
       style="fill:#0000ff"
       transform="matrix(0.28048023,0,0,0.28048023,-16.731504,207.21546)"
       id="g841">
      <path
         style="fill:#0000ff;stroke:none;stroke-width:0.23210905px;stroke-linecap:butt;stroke-linejoin:miter;stroke-opacity:1"
         d="m 73.96471,181.50439 75.9735,43.86234 75.97349,-43.86246 v 87.19666 l -18.21549,10.37559 v -61.67476 l -57.758,33.49415 -57.758015,-33.50664 v 61.69095 L 73.96471,268.70103"
         id="path816"
         inkscape:connector-curvature="0"
         inkscape:export-xdpi="96"
         inkscape:export-ydpi="96"
         sodipodi:nodetypes="cccccccccc" />
      <path
         style="fill:#0000ff;stroke:none;stroke-width:0.23210905px;stroke-linecap:butt;stroke-linejoin:miter;stroke-opacity:1"
         d="m 99.293107,230.35588 33.731823,19.47475 0.0295,23.73481 16.88382,9.7513 v -23.72132 l 13.22806,-7.63701 20.53234,11.85393 16.88469,-9.73514 -20.54312,-11.8611 20.54312,-11.86022 v 52.96806 l -50.64509,29.23955 -50.645101,-29.23955 z"
         id="path818"
         inkscape:connector-curvature="0"
         inkscape:export-xdpi="96"
         inkscape:export-ydpi="96"
         sodipodi:nodetypes="cccccccccccccc" />
      <path
         style="fill:#0000ff;stroke:none;stroke-width:0.26458332px;stroke-linecap:butt;stroke-linejoin:miter;stroke-opacity:1"
         d="m 81.395784,177.15328 51.578576,30.24784 -0.0424,-31.42252 17.00611,-9.6209 v 38.99264 l 33.58501,-19.38748 9.8053,5.7081 25.15212,-14.51768 -68.54233,-40.04232 z"
         id="path841"
         inkscape:connector-curvature="0"
         sodipodi:nodetypes="cccccccccc" />
    </g>
  </g>
</svg>
