<?xml version="1.0" encoding="UTF-8" standalone="no"?>
<svg
   xmlns:dc="http://purl.org/dc/elements/1.1/"
   xmlns:cc="http://creativecommons.org/ns#"
   xmlns:rdf="http://www.w3.org/1999/02/22-rdf-syntax-ns#"
   xmlns:svg="http://www.w3.org/2000/svg"
   xmlns="http://www.w3.org/2000/svg"
   xmlns:sodipodi="http://sodipodi.sourceforge.net/DTD/sodipodi-0.dtd"
   xmlns:inkscape="http://www.inkscape.org/namespaces/inkscape"
   width="148"
   height="31"
   viewBox="0 0 148 31"
   version="1.1"
   id="svg12"
   sodipodi:docname="logo.svg"
   inkscape:version="0.92.4 (unknown)"
   inkscape:export-filename="/home/razvan/Projects/Magekube/magekube.github.io/themes/hugo-advance/static/images/logo.png"
   inkscape:export-xdpi="100.248"
   inkscape:export-ydpi="100.248">
  <metadata
     id="metadata16">
    <rdf:RDF>
      <cc:Work
         rdf:about="">
        <dc:format>image/svg+xml</dc:format>
        <dc:type
           rdf:resource="http://purl.org/dc/dcmitype/StillImage" />
        <dc:title>logo</dc:title>
      </cc:Work>
    </rdf:RDF>
  </metadata>
  <sodipodi:namedview
     pagecolor="#ffffff"
     bordercolor="#666666"
     borderopacity="1"
     objecttolerance="10"
     gridtolerance="10"
     guidetolerance="10"
     inkscape:pageopacity="0"
     inkscape:pageshadow="2"
     inkscape:window-width="1920"
     inkscape:window-height="1016"
     id="namedview14"
     showgrid="false"
     inkscape:zoom="2.8126259"
     inkscape:cx="97.528463"
     inkscape:cy="-8.5405026"
     inkscape:window-x="0"
     inkscape:window-y="27"
     inkscape:window-maximized="1"
     inkscape:current-layer="g884"
     showguides="true"
     inkscape:guide-bbox="true" />
  <!-- Generator: Sketch 51.3 (57544) - http://www.bohemiancoding.com/sketch -->
  <title
     id="title2">logo</title>
  <desc
     id="desc4">Created with Sketch.</desc>
  <defs
     id="defs6" />
  <g
     transform="matrix(0.62994009,0,0,0.6299409,-2.5286642,-154.75908)"
     id="g1490">
    <g
       transform="matrix(1.0170299,0,0,1.007484,693.05549,-50.446344)"
       id="g884"
       style="font-style:normal;font-weight:normal;font-size:10.58333302px;line-height:1.25;font-family:sans-serif;letter-spacing:0px;word-spacing:0px;fill:#000000;fill-opacity:1;stroke:none;stroke-width:0.26458332">
      <path
         d="m -676.78307,299.09789 h 6.73619 l 8.52656,22.73749 8.57132,-22.73749 h 6.73621 v 33.41247 h -4.40873 v -29.33942 l -8.61609,22.91653 h -4.54302 l -8.61607,-22.91653 v 29.33942 h -4.38637 z"
         style="font-style:normal;font-weight:normal;font-size:45.86111069px;line-height:1.25;font-family:sans-serif;letter-spacing:0px;word-spacing:0px;fill:#000000;fill-opacity:1;stroke:#ffffff;stroke-width:1.44094527;stroke-miterlimit:4;stroke-dasharray:none;stroke-opacity:0"
         id="path922-5"
         inkscape:connector-curvature="0" />
      <path
         d="m -626.0042,319.91076 q -4.99058,0 -6.91523,1.14132 -1.92461,1.14137 -1.92461,3.89404 0,2.19319 1.43227,3.4912 1.45466,1.27561 3.93878,1.27561 3.42407,0 5.48294,-2.41699 2.0813,-2.43935 2.0813,-6.46763 v -0.91755 z m 8.21325,-1.70083 v 14.30043 h -4.1178 v -3.80449 q -1.4099,2.2827 -3.51358,3.37928 -2.10367,1.07421 -5.14727,1.07421 -3.84923,0 -6.13193,-2.1484 -2.26033,-2.17081 -2.26033,-5.79627 0,-4.22972 2.81981,-6.37815 2.84216,-2.14842 8.45941,-2.14842 h 5.77389 v -0.40282 q 0,-2.84219 -1.87986,-4.38637 -1.85751,-1.56656 -5.23678,-1.56656 -2.14844,0 -4.18497,0.51473 -2.03653,0.51472 -3.9164,1.54417 v -3.80448 q 2.26031,-0.87281 4.38638,-1.29801 2.12604,-0.4476 4.14019,-0.4476 5.43818,0 8.12372,2.81982 2.68552,2.81978 2.68552,8.54893 z"
         style="font-style:normal;font-weight:normal;font-size:45.86111069px;line-height:1.25;font-family:sans-serif;letter-spacing:0px;word-spacing:0px;fill:#000000;fill-opacity:1;stroke:#ffffff;stroke-width:1.44094527;stroke-miterlimit:4;stroke-dasharray:none;stroke-opacity:0"
         id="path924-3"
         inkscape:connector-curvature="0" />
      <path
         d="m -592.79315,319.68696 q 0,-4.47587 -1.85749,-6.93762 -1.8351,-2.46173 -5.16964,-2.46173 -3.31215,0 -5.16964,2.46173 -1.8351,2.46175 -1.8351,6.93762 0,4.45351 1.8351,6.91524 1.85749,2.46175 5.16964,2.46175 3.33454,0 5.16964,-2.46175 1.85749,-2.46173 1.85749,-6.91524 z m 4.11781,9.71266 q 0,6.4005 -2.84218,9.51124 -2.84218,3.13311 -8.70559,3.13311 -2.17081,0 -4.09544,-0.33566 -1.92461,-0.31331 -3.73737,-0.98471 v -4.00591 q 1.81276,0.98468 3.58074,1.45467 1.76796,0.46998 3.60307,0.46998 4.05069,0 6.06482,-2.12607 2.01414,-2.10365 2.01414,-6.37812 v -2.03653 q -1.27562,2.21556 -3.26741,3.31216 -1.99176,1.09658 -4.7668,1.09658 -4.61016,0 -7.42994,-3.51356 -2.8198,-3.51359 -2.8198,-9.30984 0,-5.81864 2.8198,-9.33221 2.81978,-3.51357 7.42994,-3.51357 2.77504,0 4.7668,1.09659 1.99179,1.09658 3.26741,3.31218 v -3.80452 h 4.11781 z"
         style="font-style:normal;font-weight:normal;font-size:45.86111069px;line-height:1.25;font-family:sans-serif;letter-spacing:0px;word-spacing:0px;fill:#000000;fill-opacity:1;stroke:#ffffff;stroke-width:1.44094527;stroke-miterlimit:4;stroke-dasharray:none;stroke-opacity:0"
         id="path926-5"
         inkscape:connector-curvature="0" />
      <path
         d="m -558.75406,318.94845 v 2.01413 h -18.93299 q 0.26855,4.25211 2.55124,6.49006 2.30509,2.21553 6.40054,2.21553 2.37219,0 4.58778,-0.58186 2.2379,-0.58187 4.43111,-1.74561 v 3.89404 q -2.21556,0.93994 -4.54301,1.43228 -2.32748,0.49234 -4.72207,0.49234 -5.99768,0 -9.51125,-3.49119 -3.49119,-3.49118 -3.49119,-9.44411 0,-6.15435 3.31216,-9.75742 3.33453,-3.62546 8.97414,-3.62546 5.05775,0 7.98945,3.26739 2.95409,3.24502 2.95409,8.83988 z m -4.11783,-1.2085 q -0.0447,-3.37928 -1.90224,-5.39344 -1.83511,-2.01414 -4.8787,-2.01414 -3.44644,0 -5.52773,1.94702 -2.05888,1.94698 -2.37222,5.48294 z"
         style="font-style:normal;font-weight:normal;font-size:45.86111069px;line-height:1.25;font-family:sans-serif;letter-spacing:0px;word-spacing:0px;fill:#000000;fill-opacity:1;stroke:#ffffff;stroke-width:1.44094527;stroke-miterlimit:4;stroke-dasharray:none;stroke-opacity:0"
         id="path928-6"
         inkscape:connector-curvature="0" />
      <path
         d="m -552.15214,297.68802 h 4.14019 v 20.56665 l 12.28629,-10.80924 h 5.25917 l -13.29339,11.72682 13.85287,13.33811 h -5.37105 l -12.73389,-12.24154 v 12.24154 h -4.14019 z"
         style="font-style:normal;font-weight:normal;font-size:45.86111069px;line-height:1.25;font-family:sans-serif;letter-spacing:0px;word-spacing:0px;fill:#000000;fill-opacity:1;stroke:#ffffff;stroke-width:1.44094527;stroke-miterlimit:4;stroke-dasharray:none;stroke-opacity:0"
         id="path930-2"
         inkscape:connector-curvature="0" />
      <path
         d="m -527.26625,322.61866 v -15.17323 h 4.11783 v 15.0166 q 0,3.5583 1.38751,5.34865 1.38754,1.76797 4.16258,1.76797 3.33453,0 5.25916,-2.12601 1.94702,-2.12609 1.94702,-5.79628 v -14.21093 h 4.1178 v 25.06493 h -4.1178 v -3.84926 q -1.49942,2.2827 -3.49117,3.40168 -1.96943,1.09658 -4.58779,1.09658 -4.31923,0 -6.55718,-2.68552 -2.23796,-2.68554 -2.23796,-7.85518 z m 10.36168,-15.77748 z"
         style="font-style:normal;font-weight:normal;font-size:45.86111069px;line-height:1.25;font-family:sans-serif;letter-spacing:0px;word-spacing:0px;fill:#000000;fill-opacity:1;stroke:#ffffff;stroke-width:1.44094527;stroke-miterlimit:4;stroke-dasharray:none;stroke-opacity:0"
         id="path932-9"
         inkscape:connector-curvature="0" />
      <path
         d="m -479.75476,320.00028 q 0,-4.54304 -1.87986,-7.11665 -1.8575,-2.59602 -5.12488,-2.59602 -3.26739,0 -5.14727,2.59602 -1.85749,2.57361 -1.85749,7.11665 0,4.54301 1.85749,7.13903 1.87988,2.57362 5.14727,2.57362 3.26738,0 5.12488,-2.57362 1.87986,-2.59602 1.87986,-7.13903 z m -14.0095,-8.75033 q 1.29799,-2.23798 3.2674,-3.31218 1.99175,-1.09659 4.74443,-1.09659 4.56541,0 7.40758,3.62546 2.86458,3.62546 2.86458,9.53364 0,5.90816 -2.86458,9.53363 -2.84217,3.62545 -7.40758,3.62545 -2.75268,0 -4.74443,-1.07421 -1.96941,-1.09658 -3.2674,-3.33455 v 3.75976 h -4.14019 v -34.82234 h 4.14019 z"
         style="font-style:normal;font-weight:normal;font-size:45.86111069px;line-height:1.25;font-family:sans-serif;letter-spacing:0px;word-spacing:0px;fill:#000000;fill-opacity:1;stroke:#ffffff;stroke-width:1.44094527;stroke-miterlimit:4;stroke-dasharray:none;stroke-opacity:0"
         id="path934-1"
         inkscape:connector-curvature="0" />
      <path
         d="m -447.2151,318.94845 v 2.01413 h -18.93296 q 0.26853,4.25211 2.55123,6.49006 2.30509,2.21553 6.40054,2.21553 2.37219,0 4.58776,-0.58186 2.23795,-0.58187 4.43112,-1.74561 v 3.89404 q -2.21556,0.93994 -4.54303,1.43228 -2.32745,0.49234 -4.72204,0.49234 -5.99767,0 -9.51125,-3.49119 -3.49119,-3.49118 -3.49119,-9.44411 0,-6.15435 3.31214,-9.75742 3.33455,-3.62546 8.97414,-3.62546 5.05777,0 7.98945,3.26739 2.95409,3.24502 2.95409,8.83988 z m -4.11784,-1.2085 q -0.0447,-3.37928 -1.90223,-5.39344 -1.8351,-2.01414 -4.8787,-2.01414 -3.44641,0 -5.52772,1.94702 -2.05888,1.94698 -2.3722,5.48294 z"
         style="font-style:normal;font-weight:normal;font-size:45.86111069px;line-height:1.25;font-family:sans-serif;letter-spacing:0px;word-spacing:0px;fill:#000000;fill-opacity:1;stroke:#ffffff;stroke-width:1.44094527;stroke-miterlimit:4;stroke-dasharray:none;stroke-opacity:0"
         id="path936-2"
         inkscape:connector-curvature="0" />
    </g>
  </g>
</svg>
