<?xml version="1.0" encoding="UTF-8" standalone="no"?>
<svg
   xmlns:dc="http://purl.org/dc/elements/1.1/"
   xmlns:cc="http://creativecommons.org/ns#"
   xmlns:rdf="http://www.w3.org/1999/02/22-rdf-syntax-ns#"
   xmlns:svg="http://www.w3.org/2000/svg"
   xmlns="http://www.w3.org/2000/svg"
   xmlns:sodipodi="http://sodipodi.sourceforge.net/DTD/sodipodi-0.dtd"
   xmlns:inkscape="http://www.inkscape.org/namespaces/inkscape"
   width="148"
   height="31"
   viewBox="0 0 148 31"
   version="1.1"
   id="svg12"
   sodipodi:docname="logo-invert.svg"
   inkscape:version="0.92.4 (unknown)"
   inkscape:export-filename="/home/razvan/Projects/Magekube/magekube.github.io/themes/hugo-advance/static/images/logo.png"
   inkscape:export-xdpi="100.248"
   inkscape:export-ydpi="100.248">
  <metadata
     id="metadata16">
    <rdf:RDF>
      <cc:Work
         rdf:about="">
        <dc:format>image/svg+xml</dc:format>
        <dc:type
           rdf:resource="http://purl.org/dc/dcmitype/StillImage" />
        <dc:title>logo</dc:title>
      </cc:Work>
    </rdf:RDF>
  </metadata>
  <sodipodi:namedview
     pagecolor="#ffffff"
     bordercolor="#666666"
     borderopacity="1"
     objecttolerance="10"
     gridtolerance="10"
     guidetolerance="10"
     inkscape:pageopacity="0"
     inkscape:pageshadow="2"
     inkscape:window-width="1920"
     inkscape:window-height="1016"
     id="namedview14"
     showgrid="false"
     inkscape:zoom="5.6252517"
     inkscape:cx="56.243386"
     inkscape:cy="-10.432092"
     inkscape:window-x="0"
     inkscape:window-y="27"
     inkscape:window-maximized="1"
     inkscape:current-layer="g884"
     showguides="true"
     inkscape:guide-bbox="true" />
  <!-- Generator: Sketch 51.3 (57544) - http://www.bohemiancoding.com/sketch -->
  <title
     id="title2">logo</title>
  <desc
     id="desc4">Created with Sketch.</desc>
  <defs
     id="defs6" />
  <g
     transform="matrix(0.62994009,0,0,0.6299409,-2.5286642,-154.75908)"
     id="g1490">
    <g
       transform="matrix(1.0170299,0,0,1.007484,693.05549,-50.446344)"
       id="g884"
       style="font-style:normal;font-weight:normal;font-size:10.58333302px;line-height:1.25;font-family:sans-serif;letter-spacing:0px;word-spacing:0px;fill:#ffffff;fill-opacity:1;stroke:none;stroke-width:0.26458332">
      <path
         d="m -628.2533,306.73395 h 4.69937 l 5.94838,15.86235 5.97961,-15.86235 h 4.69938 v 23.30954 h -3.07566 v -20.46806 l -6.01084,15.98726 h -3.16935 l -6.01083,-15.98726 v 20.46806 h -3.06006 z"
         style="font-style:normal;font-weight:normal;font-size:45.86111069px;line-height:1.25;font-family:sans-serif;letter-spacing:0px;word-spacing:0px;fill:#ffffff;fill-opacity:1;stroke:#ffffff;stroke-width:1.00471401;stroke-miterlimit:4;stroke-dasharray:none;stroke-opacity:1"
         id="path922-5"
         inkscape:connector-curvature="0" />
      <path
         d="m -592.82844,321.25363 q -3.48158,0 -4.82427,0.79622 -1.34267,0.79625 -1.34267,2.7166 0,1.53003 0.9992,2.43556 1.01481,0.88991 2.74781,0.88991 2.38873,0 3.82506,-1.68617 1.45198,-1.70176 1.45198,-4.51201 v -0.64011 z m 5.72981,-1.18655 v 9.97641 h -2.8727 v -2.65413 q -0.98359,1.59248 -2.45118,2.35749 -1.46758,0.7494 -3.59089,0.7494 -2.68534,0 -4.27782,-1.49879 -1.57687,-1.51442 -1.57687,-4.04365 0,-2.95078 1.96718,-4.44959 1.98278,-1.4988 5.90154,-1.4988 h 4.02804 v -0.28102 q 0,-1.9828 -1.31145,-3.06006 -1.29585,-1.09288 -3.65333,-1.09288 -1.49882,0 -2.91956,0.35909 -1.42075,0.35908 -2.7322,1.07726 v -2.65412 q 1.57686,-0.6089 3.06007,-0.90553 1.48319,-0.31226 2.88832,-0.31226 3.79384,0 5.66735,1.96719 1.8735,1.96716 1.8735,5.96399 z"
         style="font-style:normal;font-weight:normal;font-size:45.86111069px;line-height:1.25;font-family:sans-serif;letter-spacing:0px;word-spacing:0px;fill:#ffffff;fill-opacity:1;stroke:#ffffff;stroke-width:1.00471401;stroke-miterlimit:4;stroke-dasharray:none;stroke-opacity:1"
         id="path924-3"
         inkscape:connector-curvature="0" />
      <path
         d="m -569.65942,321.0975 q 0,-3.1225 -1.29584,-4.83989 -1.28022,-1.71738 -3.60649,-1.71738 -2.31066,0 -3.6065,1.71738 -1.28022,1.71739 -1.28022,4.83989 0,3.1069 1.28022,4.82428 1.29584,1.71739 3.6065,1.71739 2.32627,0 3.60649,-1.71739 1.29584,-1.71738 1.29584,-4.82428 z m 2.87271,6.77584 q 0,4.46518 -1.98279,6.63533 -1.98279,2.18575 -6.07328,2.18575 -1.51442,0 -2.8571,-0.23417 -1.34267,-0.21857 -2.6073,-0.68696 v -2.79464 q 1.26463,0.68694 2.49803,1.01482 1.23338,0.32787 2.51361,0.32787 2.82588,0 4.231,-1.48321 1.40512,-1.46757 1.40512,-4.44957 v -1.42074 q -0.88991,1.54564 -2.27944,2.31066 -1.38951,0.76501 -3.32546,0.76501 -3.21619,0 -5.18335,-2.45117 -1.96718,-2.45118 -1.96718,-6.49482 0,-4.05926 1.96718,-6.51043 1.96716,-2.45117 5.18335,-2.45117 1.93595,0 3.32546,0.76501 1.38953,0.76501 2.27944,2.31068 v -2.65415 h 2.87271 z"
         style="font-style:normal;font-weight:normal;font-size:45.86111069px;line-height:1.25;font-family:sans-serif;letter-spacing:0px;word-spacing:0px;fill:#ffffff;fill-opacity:1;stroke:#ffffff;stroke-width:1.00471401;stroke-miterlimit:4;stroke-dasharray:none;stroke-opacity:1"
         id="path926-5"
         inkscape:connector-curvature="0" />
      <path
         d="m -545.91273,320.58229 v 1.40512 h -13.20822 q 0.18735,2.9664 1.77982,4.52766 1.6081,1.54562 4.46521,1.54562 1.65491,0 3.20057,-0.40592 1.56123,-0.40593 3.09128,-1.21779 v 2.7166 q -1.54564,0.65573 -3.16934,0.9992 -1.62372,0.34347 -3.29426,0.34347 -4.18416,0 -6.63533,-2.43556 -2.43556,-2.43555 -2.43556,-6.58849 0,-4.29346 2.31066,-6.80707 2.32627,-2.52923 6.26063,-2.52923 3.52844,0 5.57368,2.27943 2.06086,2.26382 2.06086,6.16696 z m -2.87272,-0.84308 q -0.0312,-2.35749 -1.32706,-3.76263 -1.28023,-1.40512 -3.40353,-1.40512 -2.40434,0 -3.85631,1.3583 -1.43633,1.35827 -1.65493,3.82506 z"
         style="font-style:normal;font-weight:normal;font-size:45.86111069px;line-height:1.25;font-family:sans-serif;letter-spacing:0px;word-spacing:0px;fill:#ffffff;fill-opacity:1;stroke:#ffffff;stroke-width:1.00471401;stroke-miterlimit:4;stroke-dasharray:none;stroke-opacity:1"
         id="path928-6"
         inkscape:connector-curvature="0" />
      <path
         d="m -541.30703,305.75038 h 2.88832 v 14.34791 l 8.57128,-7.54085 h 3.66896 l -9.27387,8.18098 9.66418,9.30507 h -3.74701 l -8.88354,-8.54007 v 8.54007 h -2.88832 z"
         style="font-style:normal;font-weight:normal;font-size:45.86111069px;line-height:1.25;font-family:sans-serif;letter-spacing:0px;word-spacing:0px;fill:#ffffff;fill-opacity:1;stroke:#ffffff;stroke-width:1.00471401;stroke-miterlimit:4;stroke-dasharray:none;stroke-opacity:1"
         id="path930-2"
         inkscape:connector-curvature="0" />
      <path
         d="m -523.94589,323.14274 v -10.5853 h 2.87272 v 10.47603 q 0,2.48238 0.96797,3.73138 0.96799,1.23339 2.90394,1.23339 2.32627,0 3.66895,-1.48317 1.3583,-1.48322 1.3583,-4.04366 v -9.91397 h 2.8727 v 17.48605 h -2.8727 v -2.68536 q -1.04604,1.59248 -2.43555,2.37311 -1.37393,0.76501 -3.20058,0.76501 -3.01322,0 -4.57448,-1.8735 -1.56127,-1.87351 -1.56127,-5.48001 z m 7.22862,-11.00684 z"
         style="font-style:normal;font-weight:normal;font-size:45.86111069px;line-height:1.25;font-family:sans-serif;letter-spacing:0px;word-spacing:0px;fill:#ffffff;fill-opacity:1;stroke:#ffffff;stroke-width:1.00471401;stroke-miterlimit:4;stroke-dasharray:none;stroke-opacity:1"
         id="path932-9"
         inkscape:connector-curvature="0" />
      <path
         d="m -490.80045,321.31608 q 0,-3.16936 -1.31145,-4.96479 -1.29585,-1.81106 -3.57527,-1.81106 -2.27943,0 -3.59089,1.81106 -1.29584,1.79543 -1.29584,4.96479 0,3.16934 1.29584,4.9804 1.31146,1.79544 3.59089,1.79544 2.27942,0 3.57527,-1.79544 1.31145,-1.81106 1.31145,-4.9804 z m -9.77345,-6.10449 q 0.90552,-1.56128 2.27944,-2.31068 1.3895,-0.76501 3.30985,-0.76501 3.18497,0 5.16775,2.52923 1.99842,2.52923 1.99842,6.65095 0,4.12171 -1.99842,6.65095 -1.98278,2.52922 -5.16775,2.52922 -1.92035,0 -3.30985,-0.7494 -1.37392,-0.76501 -2.27944,-2.32628 v 2.62292 h -2.88832 v -24.29311 h 2.88832 z"
         style="font-style:normal;font-weight:normal;font-size:45.86111069px;line-height:1.25;font-family:sans-serif;letter-spacing:0px;word-spacing:0px;fill:#ffffff;fill-opacity:1;stroke:#ffffff;stroke-width:1.00471401;stroke-miterlimit:4;stroke-dasharray:none;stroke-opacity:1"
         id="path934-1"
         inkscape:connector-curvature="0" />
      <path
         d="m -468.09981,320.58229 v 1.40512 h -13.2082 q 0.18733,2.9664 1.77981,4.52766 1.6081,1.54562 4.46521,1.54562 1.65491,0 3.20056,-0.40592 1.56126,-0.40593 3.09128,-1.21779 v 2.7166 q -1.54564,0.65573 -3.16935,0.9992 -1.6237,0.34347 -3.29424,0.34347 -4.18415,0 -6.63533,-2.43556 -2.43556,-2.43555 -2.43556,-6.58849 0,-4.29346 2.31065,-6.80707 2.32628,-2.52923 6.26063,-2.52923 3.52845,0 5.57368,2.27943 2.06086,2.26382 2.06086,6.16696 z m -2.87273,-0.84308 q -0.0312,-2.35749 -1.32705,-3.76263 -1.28022,-1.40512 -3.40353,-1.40512 -2.40432,0 -3.8563,1.3583 -1.43634,1.35827 -1.65492,3.82506 z"
         style="font-style:normal;font-weight:normal;font-size:45.86111069px;line-height:1.25;font-family:sans-serif;letter-spacing:0px;word-spacing:0px;fill:#ffffff;fill-opacity:1;stroke:#ffffff;stroke-width:1.00471401;stroke-miterlimit:4;stroke-dasharray:none;stroke-opacity:1"
         id="path936-2"
         inkscape:connector-curvature="0" />
    </g>
    <g
       style="fill:#ffffff"
       transform="matrix(0.2804806,0,0,0.28048023,-16.731532,207.21547)"
       id="g841">
      <path
         style="fill:#ffffff;stroke:none;stroke-width:0.23210905px;stroke-linecap:butt;stroke-linejoin:miter;stroke-opacity:1"
         d="m 73.96471,181.50439 75.9735,43.86234 75.97349,-43.86246 v 87.19666 l -18.21549,10.37559 v -61.67476 l -57.758,33.49415 -57.758015,-33.50664 v 61.69095 L 73.96471,268.70103"
         id="path816"
         inkscape:connector-curvature="0"
         inkscape:export-xdpi="96"
         inkscape:export-ydpi="96"
         sodipodi:nodetypes="cccccccccc" />
      <path
         style="fill:#ffffff;stroke:none;stroke-width:0.23210905px;stroke-linecap:butt;stroke-linejoin:miter;stroke-opacity:1"
         d="m 99.293107,230.35588 33.731823,19.47475 0.0295,23.73481 16.88382,9.7513 v -23.72132 l 13.22806,-7.63701 20.53234,11.85393 16.88469,-9.73514 -20.54312,-11.8611 20.54312,-11.86022 v 52.96806 l -50.64509,29.23955 -50.645101,-29.23955 z"
         id="path818"
         inkscape:connector-curvature="0"
         inkscape:export-xdpi="96"
         inkscape:export-ydpi="96"
         sodipodi:nodetypes="cccccccccccccc" />
      <path
         style="fill:#ffffff;stroke:none;stroke-width:0.26458332px;stroke-linecap:butt;stroke-linejoin:miter;stroke-opacity:1"
         d="m 81.395784,177.15328 51.578576,30.24784 -0.0424,-31.42252 17.00611,-9.6209 v 38.99264 l 33.58501,-19.38748 9.8053,5.7081 25.15212,-14.51768 -68.54233,-40.04232 z"
         id="path841"
         inkscape:connector-curvature="0"
         sodipodi:nodetypes="cccccccccc" />
    </g>
  </g>
</svg>
