<?xml version="1.0" encoding="UTF-8" standalone="no"?>
<!-- Generator: Adobe Illustrator 17.1.0, SVG Export Plug-In . SVG Version: 6.00 Build 0)  -->

<svg
   xmlns:dc="http://purl.org/dc/elements/1.1/"
   xmlns:cc="http://creativecommons.org/ns#"
   xmlns:rdf="http://www.w3.org/1999/02/22-rdf-syntax-ns#"
   xmlns:svg="http://www.w3.org/2000/svg"
   xmlns="http://www.w3.org/2000/svg"
   xmlns:sodipodi="http://sodipodi.sourceforge.net/DTD/sodipodi-0.dtd"
   xmlns:inkscape="http://www.inkscape.org/namespaces/inkscape"
   version="1.1"
   id="logo"
   x="0px"
   y="0px"
   viewBox="0 0 147.5 47.299999"
   enable-background="new 0 0 300 150"
   xml:space="preserve"
   sodipodi:docname="toptal.svg"
   width="147.5"
   height="47.299999"
   inkscape:version="0.92.4 (unknown)"><metadata
   id="metadata25"><rdf:RDF><cc:Work
       rdf:about=""><dc:format>image/svg+xml</dc:format><dc:type
         rdf:resource="http://purl.org/dc/dcmitype/StillImage" /><dc:title></dc:title></cc:Work></rdf:RDF></metadata><defs
   id="defs23" /><sodipodi:namedview
   pagecolor="#ffffff"
   bordercolor="#666666"
   borderopacity="1"
   objecttolerance="10"
   gridtolerance="10"
   guidetolerance="10"
   inkscape:pageopacity="0"
   inkscape:pageshadow="2"
   inkscape:window-width="1501"
   inkscape:window-height="838"
   id="namedview21"
   showgrid="false"
   inkscape:zoom="1.1866667"
   inkscape:cx="151.68539"
   inkscape:cy="71.629213"
   inkscape:window-x="0"
   inkscape:window-y="27"
   inkscape:window-maximized="0"
   inkscape:current-layer="logo" />
<g
   id="g18"
   transform="translate(-69.9,-51.1)">
	<path
   d="m 102.2,70.8 -19.7,-19.7 -4,4 7.4,7.4 -16,16 19.7,19.7 4,-4 -7.4,-7.4 z m -23.4,8.3 11.9,-11.9 2.4,2.4 -11.9,12 z"
   id="path2"
   inkscape:connector-curvature="0"
   style="fill:#3d64ac" />
	<g
   id="g16">
		<path
   d="m 115.8,56.8 v 6 h 6.6 v 3.5 h -6.6 v 13.6 c 0,3.1 0.9,4.9 3.4,4.9 1.2,0 2,-0.1 2.7,-0.3 l 0.2,3.5 c -0.9,0.3 -2.3,0.6 -4.1,0.6 -2.1,0 -3.9,-0.7 -4.9,-1.9 -1.2,-1.4 -1.8,-3.6 -1.8,-6.6 V 66.3 h -3.9 v -3.5 h 3.9 v -4.7 z"
   id="path4"
   inkscape:connector-curvature="0"
   style="fill:#3d64ac" />
		<path
   d="m 147,75.3 c 0,9.3 -6.5,13.4 -12.6,13.4 -6.8,0 -12.1,-5 -12.1,-13 0,-8.4 5.6,-13.3 12.5,-13.3 7.3,-0.1 12.2,5.2 12.2,12.9 z m -19.9,0.2 c 0,5.5 3.1,9.7 7.6,9.7 4.4,0 7.7,-4.1 7.7,-9.8 0,-4.3 -2.1,-9.6 -7.6,-9.6 -5.4,0 -7.7,5 -7.7,9.7 z"
   id="path6"
   inkscape:connector-curvature="0"
   style="fill:#3d64ac" />
		<path
   d="m 149.3,71.1 c 0,-3.2 -0.1,-5.8 -0.2,-8.2 h 4.1 l 0.3,4.3 h 0.1 c 1.8,-3.1 4.8,-4.8 9,-4.8 6.1,0 10.7,5.2 10.7,12.8 0,9.1 -5.6,13.5 -11.5,13.5 -3.3,0 -6.3,-1.5 -7.8,-4 h -0.1 v 13.7 h -4.5 V 71.1 Z m 4.5,6.7 c 0,0.7 0.1,1.3 0.2,1.9 0.8,3.2 3.6,5.4 6.9,5.4 4.8,0 7.7,-4 7.7,-9.7 0,-5 -2.7,-9.3 -7.5,-9.3 -3.1,0 -6.1,2.2 -6.9,5.6 -0.2,0.6 -0.3,1.3 -0.3,1.8 v 4.3 z"
   id="path8"
   inkscape:connector-curvature="0"
   style="fill:#3d64ac" />
		<path
   d="m 182,56.8 v 6 h 6.6 v 3.5 H 182 v 13.6 c 0,3.1 0.9,4.9 3.4,4.9 1.2,0 2,-0.1 2.7,-0.3 l 0.2,3.5 c -0.9,0.3 -2.3,0.6 -4.1,0.6 -2.1,0 -3.9,-0.7 -4.9,-1.9 -1.3,-1.4 -1.8,-3.6 -1.8,-6.6 V 66.3 h -3.9 v -3.5 h 3.9 v -4.7 z"
   id="path10"
   inkscape:connector-curvature="0"
   style="fill:#3d64ac" />
		<path
   d="m 209.4,82 c 0,2.2 0.1,4.3 0.4,6 h -4.1 l -0.4,-3.2 h -0.2 c -1.4,2 -4.1,3.8 -7.7,3.8 -5.1,0 -7.7,-3.6 -7.7,-7.2 0,-6.1 5.4,-9.4 15.2,-9.4 v -0.5 c 0,-2 -0.6,-5.8 -5.7,-5.8 -2.4,0 -4.8,0.7 -6.6,1.9 l -1,-3.1 c 2.1,-1.3 5.2,-2.2 8.3,-2.2 7.7,0 9.6,5.3 9.6,10.3 V 82 Z M 205,75.2 c -5,-0.1 -10.7,0.8 -10.7,5.7 0,3 2,4.4 4.3,4.4 3.3,0 5.5,-2.1 6.2,-4.2 0.2,-0.5 0.2,-1 0.2,-1.5 z"
   id="path12"
   inkscape:connector-curvature="0"
   style="fill:#3d64ac" />
		<path
   d="m 212.8,51.1 h 4.6 v 37 h -4.6 z"
   id="path14"
   inkscape:connector-curvature="0"
   style="fill:#3d64ac" />
	</g>
</g>
</svg>